<svg width="15" height="15" viewBox="0 0 15 15" fill="none" xmlns="http://www.w3.org/2000/svg">
    <g clip-path="url(#a)" fill="#006450">
        <path d="M7.502 0a.524.524 0 0 0-.524.527v9.566L4.6 7.716a.527.527 0 0 0-.745.744l3.275 3.275a.527.527 0 0 0 .741 0l3.275-3.278a.527.527 0 0 0-.745-.744L8.025 10.09V.527A.522.522 0 0 0 7.501 0zM13.962 14.476a.527.527 0 0 0-.527-.527H1.565a.524.524 0 1 0 0 1.05h11.873a.52.52 0 0 0 .524-.523z"/>
    </g>
    <defs>
        <clipPath id="a">
            <path fill="#fff" d="M0 0h15v15H0z"/>
        </clipPath>
    </defs>
</svg>
